<svg enable-background="new 0 0 3797.891 2424.367" height="2424.367" viewBox="0 0 3797.891 2424.367" width="3797.891" xmlns="http://www.w3.org/2000/svg"><g opacity=".5" transform="translate(22 79)"><path d="m3247.444 220.853c9.774-28.312 23.286-96.981 44.141-112.075 13.431-9.723 25.155 47.653 28.408 58.3 12.592 41.199 20.359 83.493 27.153 125.972 12.265 76.614 1.849 150.962-20.299 225.509-11.397 38.361-26.263 78.143-54.08 108.015-12.808 13.755-30.979 20.653-43.96 33.066-15.121 14.447-7.594 4.115-10.296 24.963-3.757 28.944 2.207 63.191 4.933 92.146 12.503 132.925 146.411 816.151 193.133 941.608 4.146 11.121-10.932 18.389-15.706 4.732-25.316-72.41-135.083-592.625-164.518-764.603-29.434-171.98-53.078-324.591-50.979-387.615 2.546-76.457 19.256-172.318 34.539-247.322 7.099-34.841 15.915-69.047 27.531-102.696z" fill="#69a1ac"/><path d="m3604.611 1003.312c33.968-43.916 97.623 2.335 67.754 45.086-16.514 23.639-40.795 23.873-57.634 12.958-5.349 12.377-10.038 25.064-14.896 36.039-14.796 33.43-28.17 67.151-40.418 101.248-25.44 70.836-43.887 143.248-64.307 215.002-20.151 70.816-39.914 141.857-56.129 213.189-13.735 60.438-34.381 132.826-27.799 192.879-19.895-125.66 3.229-258.556 39.924-384.879 36.396-125.296 79.855-263.194 159.313-376.62-14.969-12.465-21.599-34.488-5.808-54.902z" fill="#c1dee2"/><path d="m2703.385 941.365c25.425-2.196 80.377 40.983 106.17 56.04 30.654 17.895 59.587 38.046 87.649 59.795 60.414 46.823 117.317 98.709 169.181 154.959 84.545 91.691 159.207 189.302 223.956 296.988 39.634 65.917 73.261 136.375 101.688 207.768 5.364 13.463 50.539 116.162 30.426 125.049-18.092 7.996-36.287-77.416-40.461-88.549-47.121-125.562-113.745-241.779-191.276-350.633-16.886-23.713-34.816-53.552-56.533-73.02-15.64-14.024-3.271-11.115-23.992-12.18-17.797-.917-35.864 5.735-54.408 3.685-40.277-4.445-77.36-24.863-110.933-46.471-65.239-41.989-121.595-91.498-162.507-157.544-22.691-36.618-44.534-73.729-62.059-113.161-4.529-10.192-33.277-61.314-16.901-62.726z" fill="#69a1ac"/><path d="m2538.569 8.026c135.777 131.264 259.832 282.649 358.121 443.823 59.554 97.654 111.135 200.593 162.359 302.785 79.313 158.228 156.931 316.935 214.17 484.709 57.577 168.743 130.977 361.367 122.202 542.312-20.002-175.42-97.747-345.951-150.764-513.029-25.313-79.757-54.679-157.504-86.174-234.981-30.556-75.16-66.275-148.433-100.997-221.736-16.909-35.701-34.109-71.253-51.427-106.754-5.164-10.59-15.491-43.457-24.752-49.047-9.322-5.631-46.557 1.662-59.579-.695-26.226-4.749-52.452-14.654-76.455-26.187-46.016-22.102-90.133-55.575-127.351-90.368-86.121-80.507-143.426-192.461-174.529-305.375-6.041-21.923-38.382-267.38-53.428-266.571.563-1.237 1.074-2.498 1.524-3.783 15.823 14.831 31.478 29.843 47.08 44.897z" fill="#89c5cc"/><path d="m3679.965 294.564c.823-2.415 5.905-19.065 1.576-16.852 8.816-4.507-8.406 19.159 11.816 1.868-8.055 13.602 2.206 25.328 6.383 39.324 6.773 22.726 9.441 46.43 11.545 69.967 3.326 37.207 3.049 74.387-2.217 111.389-11.477 80.639-46.038 165.009-97.68 228.172-25.494 31.185-54.525 47.638-87.902 68.198-21.082 12.988-19.499 25.37-25.289 51.101-12.046 53.593-23.689 106.889-32.296 161.188-10.278 64.833-19.757 129.51-27.497 194.708-26.08 219.617-34.82 441.91-9.729 662.164-36.376-123.605-44.301-259.379-42.013-387.796 1.664-93.559 12.161-186.297 25.182-278.853 3.158-22.424 9.246-51.849 6.714-74.88-1.775-16.135-14.069-28.617-22.404-43.761-32.463-58.971-51.703-129.951-57.27-197.004-6.139-73.934 24.8-117.939 90.041-147.37 23.861-10.763 55.891-18.509 75.678-35.675 21.559-18.692 20.928-59.637 28.075-88.087 19.202-76.424 46.321-152.215 82.325-222.286 9.965-19.405 21.355-37.94 33.983-55.705 7.963-11.215 26.86-27.627 30.979-39.81z" fill="#89c5cc"/><path d="m3275.39 1764.984 241.624-69.285c10.863-3.115 22.194 3.166 25.311 14.031.275.961.479 1.941.613 2.928l17.639 131.992c5.375 40.236-19.551 78.334-58.574 89.523l-87.512 25.094c-39.02 11.188-80.348-7.91-97.11-44.883l-54.989-121.281c-4.665-10.289-.104-22.42 10.189-27.086.909-.414 1.848-.758 2.809-1.033z" fill="#c1dee2"/></g><path d="m3359.511 1198.683c-73.342-89.597-251.223-63.002-274.732 46.062-3.135 14.544-19.281 67.791-19.018 81.875 1.011 54.058-62.955 81.789-115.133 95.967-11.137 3.027-22.982 6.534-30.383 15.394-20.001 23.947 7.895 60.171 1.412 90.691-11.905 56.047-141.777 15.74-134.295 112.618 7.77 100.61 35.709 94.379-57.883 194.256-26.133 27.889 19.109 97.715 105.88 24.895 16.829-14.123 92.48 25.17 95.492 3.406 5.728-41.4 15.628-40.16 47.749-66.904 32.119-26.74 115.196-59.1 158.312-86.176 166.419-104.507 72.753-114.52 90.358-113.438 120.916 7.429 308.645-183.152 132.241-398.646z" fill="#3d4e61"/><path d="m2973.975 1776.912c3.43-83.975-11.837-114.674 61.007-151.574l92.023-17.995c26.875 0 65.06-34.122 67.916-60.845l13.039-122.024h63.104l13.039 122.024c2.854 26.724 35.422 55.02 62.296 55.02l97.644 23.82c78.533 47.267 92.211 102.42 125.363 196.107l44.532 97.895-133.943-59.043z" fill="#f27979"/><path d="m3051.345 1622.138s-110.593-3.143-261.495 355.252l143.477 36.949c-.001 0 214.852-251.832 118.018-392.201z" fill="#f27979"/><path d="m3437.501 1622.138s127.152 0 269.1 392.202l-139.701 27.045c-.001-.001-234.254-258.712-129.399-419.247z" fill="#f27979"/><ellipse cx="3150.09" cy="1390.709" fill="#f27979" rx="44.143" ry="32.954"/><ellipse cx="3331.514" cy="1390.709" fill="#f27979" rx="44.144" ry="32.954"/><path d="m3242.644 1502.294c64.322 0 105.896-52.627 105.896-116.948v-107.91c0-64.322-41.572-91.159-105.896-91.159 0 0-111.082-13.474-105.895 91.159v107.91c0 64.321 41.573 116.948 105.895 116.948z" fill="#f27979"/><path d="m3260.735 1162.301c21.329 15.293 8.541 62.36-34.16 121.91s-117.287 118.107-138.616 102.813c-21.328-15.293.532-98.646 43.234-158.197 42.701-59.55 108.214-81.819 129.542-66.526z" fill="#3d4e61"/><path d="m3382.411 1381.878c-46.695-28.272-46.695-28.272-80.648-76.49-33.955-48.217-62.444-127.96-46.848-138.944 15.6-10.984 55.768 19.2 89.721 67.418 33.955 48.218 54.093 157.897 37.775 148.016z" fill="#3d4e61"/><path d="m2960.37 2318.429c25.978-232.248 96.515-384.945 43.179-609.025-14.837-56.8-44.266-69.029 89.36-106.775 7.67-2.167 15.943-3.191 23.915-3.191 27.894 40.57 72.406 70.843 122.555 70.843 50.15 0 91.47-30.273 119.365-70.843 7.97 0 19.339 1.395 27.104 3.191 151.332 35.002 104.199 50.271 89.361 107.07-53.336 224.08 9.935 382.369 43.18 609.117 8.93 60.91-17.723 105.551-99.992 105.551-119.346 0-238.691 0-358.037 0-82.27 0-106.834-44.758-99.99-105.938z" fill="#fcfeff"/><path d="m3175.276 1540.316s-.954 36.778-66.432 59.48c0 0 40.664 66.561 130.534 70.664 89.872 4.104 125.749-70.575 125.749-70.575s-60.756-5.312-68.183-59.57h-121.668z" fill="#fcfeff"/><path d="m3213.21 2137.412c.984 23.568 40.062 21.561 88.285 19.549 48.223-2.008 106.209 15.477 105.229-8.094-.984-23.57-59.898-63.359-108.123-61.35-48.224 2.01-86.373 26.324-85.391 49.895z" fill="#f27979"/><path d="m2938.465 1706.445s-273.426 403.182-138.657 441.434c154.253 43.785 330.042-9.617 420.562 7.768 64.183 12.326 9.137-44.584 9.137-44.584l-323.809-45.787s64.889-92.148 87.27-189.506c22.382-97.358-54.503-169.325-54.503-169.325z" fill="#f27979"/><path d="m3273.265 2137.412c-.984 23.568-40.062 21.561-88.284 19.549-48.225-2.008-106.211 15.477-105.228-8.094.981-23.57 59.897-63.359 108.121-61.35s86.373 26.324 85.391 49.895z" fill="#f27979"/><path d="m3529.271 1688.764s292.164 420.862 157.398 459.114c-154.254 43.785-330.045-9.617-420.564 7.768-64.182 12.326-9.137-44.584-9.137-44.584l323.809-45.787s-87.575-122.688-109.956-220.045c-22.383-97.359 58.45-156.466 58.45-156.466z" fill="#f27979"/><path d="m3119.248 1408.215c-4.042.425-8.087.851-12.13 1.276-8.982.945-18.785-4.773-21.078-12.959-5.108-18.13-7.402-36.845-6.816-55.574.254-8.456 8.424-16.064 17.404-17.01 4.045-.425 8.087-.851 12.131-1.276 3.389-.357 5.826 1.932 5.561 5.115-2.1 25.074.99 50.289 9.11 74.287 1.028 3.047-.791 5.784-4.182 6.141z" fill="#e6e4e1"/><path d="m3355.591 1408.215c4.045.425 8.088.851 12.131 1.276 8.981.945 18.784-4.773 21.078-12.959 5.107-18.13 7.404-36.845 6.814-55.574-.253-8.456-8.423-16.064-17.404-17.01-4.042-.425-8.086-.851-12.131-1.276-3.389-.357-5.825 1.932-5.561 5.115 2.102 25.074-.99 50.289-9.107 74.287-1.031 3.047.791 5.784 4.18 6.141z" fill="#e6e4e1"/><path d="m3185.683 1456.134c.975 1.524 1.795 3.554 1.352 5.284-.988 3.841-4.11 7.221-6.917 7.188-6.218-.063-12.211-1.364-17.804-3.862-2.524-1.123-3.67-5.43-2.683-9.272.443-1.729 4.205-5.253 7.073-5.355 8.266-.292 16.167 1.621 18.979 6.017z" fill="#e6e4e1"/><path d="m3180.759 1465.116c-40.182 1.155-74.062-39.425-75.53-90.459-.067-2.375 1.953-4.359 4.517-4.432 2.562-.074 4.695 1.79 4.764 4.166 1.331 46.29 30.94 83.135 66.003 82.126 2.563-.073 4.693 1.79 4.764 4.166.066 2.377-1.956 4.359-4.518 4.433z" fill="#e6e4e1"/><path d="m3107.244 1343.106-8.602-.415c.079-1.646 9.39-163.25 140.927-163.25 1.226 0 2.467.014 3.723.043 84.725 1.932 129.951 53.532 134.42 153.369l-8.602.387c-4.296-95.833-45.514-143.309-126.021-145.143-1.188-.028-2.381-.042-3.555-.042-123.3 0-131.978 148.665-132.29 155.051z" fill="#e6e4e1"/><path d="m1853.743 1511.895h182.152v57.293h-182.152z" fill="#dfe6ec"/><path d="m2049.735 1554.815c-26.941 0-48.54-35.601-51.402-62.391l-13.071-122.33h-73.348l-13.071 122.33c-2.863 26.79-24.461 62.391-51.404 62.391z" fill="#f27979"/><path d="m2286.948 1583.294c-.769.108-1.453.318-2.209.442-60.933-66.717-661.984-62.179-675.346 18.502-16.537 31.903-137.27 270.571-122.519 411.005 19.56 186.211 100.598 133.051 152.252-24.447 1.453-4.43 2.893-8.92 4.326-13.438 24.017 147.592 46.541 275.9 118.425 281.287 170.344 12.764 290.802-2.957 388.841 0 55.376 1.67 89.36-115.49 116.592-260.377 54.776 141.609 159.896 201.678 159.348 16.975-.446-151.535-139.71-429.949-139.71-429.949z" fill="#dfe6ec"/><path d="m2031.714 1553.773c0 8.796-10.504 54.246-37.766 67.848-28.249 14.094-61.392 14.094-89.641 0-27.261-13.602-37.767-59.052-37.767-67.848 0-16.304 26.427-29.52 82.588-29.52 56.16 0 82.586 13.217 82.586 29.52z" fill="#f27979"/><path d="m1965.057 2128.23h-50.129l3.138-510.662 50.094 5.996z" fill="#fff"/><path d="m1933.458 1679.634-18.764 399.078 27.802 59.079v-458.157z" fill="#2c3640"/><path d="m1952.568 1679.634 19.127 399.078-29.199 59.079v-458.157z" fill="#37434f"/><path d="m1944.151 1637.35h-1.762-32.215l22.93 45.806h9.028 1.763 8.973l22.161-45.806z" fill="#37434f"/><path d="m1941.342 1618.822-102.735 73.004 15.136-179.931z" fill="#fff"/><path d="m1941.342 1618.822 104.869 73.004-10.315-179.931z" fill="#fff"/><g fill="#f27979"><path d="m2389.272 2008.386c55.06 20.904 120.888 215.912-421.422 155.658l7.655-43.35s261.004-62.055 277.335-71.256c51.744-29.151 93.556-57.331 136.432-41.052z"/><path d="m1993.584 2150.119c-.941 22.617-38.442 20.689-84.715 18.762-46.277-1.93-101.92 14.85-100.977-7.77.943-22.615 57.477-60.799 103.753-58.871 46.275 1.931 82.882 25.261 81.939 47.879z"/><path d="m1526.391 2022.394c-53.078 25.521-102.033 225.434 433.161 119.146l-11.326-42.535s-265.345-39.572-282.401-47.346c-54.042-24.632-98.105-49.144-139.434-29.265z"/><path d="m1932.724 2129.863c2.866 22.455 40.066 17.336 86.006 11.469 45.943-5.869 102.814 6.104 99.946-16.354-2.869-22.451-62.452-55.674-108.396-49.807-45.94 5.87-80.425 32.239-77.556 54.692z"/><ellipse cx="1850.638" cy="1340.983" rx="48.063" ry="35.879"/><ellipse cx="2054.034" cy="1340.983" rx="48.062" ry="35.879"/><path d="m1952.336 1472.124c63.678 0 115.296-51.621 115.296-115.297v-153.59c0-57.031-46.6-76.743-103.263-83.206-59.975-6.841-127.33 36.95-127.33 107.272v129.523c0 63.677 51.62 115.298 115.297 115.298z"/></g><path d="m2091.31 1207.138c4.611 32.784-11.831 77.37-20.48 95.591-2.636 5.551-1.09 14.99-7.183 14.184-4.949-.655-5.945-7.304-5.733-12.292 1.314-30.71-.167-61.54-4.418-91.983-.857-6.144-1.821-12.464-.338-18.489 6.46-26.278 36.669 2.455 38.152 12.989z" fill="#3d4e61"/><path d="m1812.614 1208.524c-3.268 32.124-.574 80.18 20.303 94.205 5.1 3.426 1.088 14.99 7.18 14.184 4.95-.655 5.946-7.304 5.735-12.292-1.315-30.71.167-61.54 4.417-91.983.858-6.144 1.821-12.464.339-18.489-6.462-26.278-34.276-21.968-37.974 14.375z" fill="#3d4e61"/><path d="m1919.192 1182.532c9.146 8.797 32.382 14.445 44.677 11.293 12.485-3.2 75.965-19.94 81.779-9.06 5.815 10.881 17.43 31.979 28.88 27.387 7.141-2.863 7.06 2.143 8.621-12.795 2.902-27.775-18.845-108.679-58.25-116.201-56.264-10.739-134.531-1.747-177.46 36.173-43.349 38.288-96.067 25.419-7.993 83.309 12.25 8.051 70.601-28.905 79.746-20.106z" fill="#3d4e61"/><path d="m1847.123 1366.772c-4.043.425-8.088.85-12.131 1.276-8.98.945-18.782-4.773-21.076-12.959-5.11-18.131-7.403-36.845-6.815-55.574.253-8.456 8.423-16.065 17.403-17.01 4.043-.425 8.086-.85 12.131-1.276 3.39-.356 5.827 1.932 5.562 5.115-2.102 25.074.99 50.289 9.108 74.286 1.028 3.048-.791 5.785-4.182 6.142z" fill="#e6e4e1"/><path d="m2064.336 1362.62c4.066.055 8.13.11 12.196.166 9.029.122 18.27-6.467 19.808-14.828 3.435-18.521 4.013-37.366 1.719-55.964-1.023-8.396-9.852-15.229-18.881-15.351-4.065-.055-8.131-.11-12.197-.165-3.408-.047-5.627 2.455-5.071 5.601 4.377 24.777 3.599 50.169-2.298 74.807-.747 3.129 1.315 5.688 4.724 5.734z" fill="#e6e4e1"/><path d="m1907.813 1403.206c.977 1.524 1.798 3.555 1.353 5.284-.988 3.842-4.11 7.223-6.917 7.189-6.217-.063-12.212-1.362-17.802-3.863-2.525-1.123-3.671-5.43-2.685-9.271.445-1.729 4.207-5.252 7.073-5.354 8.267-.294 16.168 1.62 18.978 6.015z" fill="#e6e4e1"/><path d="m1902.891 1412.188c-40.18 1.155-74.062-39.423-75.53-90.459-.068-2.375 1.954-4.358 4.517-4.432 2.562-.073 4.695 1.791 4.764 4.166 1.33 46.291 30.94 83.136 66.002 82.127 2.562-.074 4.695 1.79 4.763 4.165.068 2.376-1.954 4.359-4.516 4.433z" fill="#e6e4e1"/><path d="m1826.318 1290.521c-.499-4.093-11.688-100.809 39.021-150.128 24.032-23.365 57.897-31.953 100.663-25.498 104.149 15.705 107.846 98.081 111.103 170.763l-9.054.405c-3.256-72.571-6.621-147.61-103.401-162.201-39.81-6.004-71.081 1.738-92.967 23.012-47.493 46.158-36.48 141.586-36.362 142.546z" fill="#e6e4e1"/><path d="m1904.833 2122.906h585.838v34.764h-585.838z" fill="#515c66"/><path d="m1912.201 2130.275h585.838v34.764h-585.838z" fill="#5c6c7a"/><path d="m2513.644 2128.14h-519.316l51.575-327.601h519.316z" fill="#515c66"/><path d="m2513.644 2150.242h-519.316l58.942-349.703h519.316z" fill="#5c6c7a"/><path d="m3101.898 2122.906h585.841v34.764h-585.841z" fill="#515c66"/><path d="m3109.267 2130.275h585.84v34.764h-585.84z" fill="#5c6c7a"/><path d="m3710.71 2128.14h-519.314l51.573-327.601h519.315z" fill="#515c66"/><path d="m3710.71 2150.242h-519.314l58.941-349.703h519.315z" fill="#5c6c7a"/><path d="m993.974 1417.279c6.184-10.873 22.4-10.524 31.687-18.903 9.864-8.901 8.748-25.528 1.185-36.451-5.861-8.466-19.891-10.248-27.216-16.664-.246-2.631-.535-5.236-.795-7.758-1.527-14.754 28.733-17.568 21.612-43.053-3.565-12.761-14.006-19.275-22.63-29.465-18.457-21.812 23.151-31.465-5.183-71.247-13.223-18.564-35.15-6.229-46.039-25.325-13.371-23.451-3.479-25.256-9.254-48.017-9.669-38.106-44.471-.458-60.152-27.008-2.711-4.592-2.208-10.288-3.437-15.455-3.584-15.063-24.781-22.815-37.649-13.769-8.033 5.648-14.257 16.629-24.036 15.225-4.42-.634-7.926-3.833-11.123-6.876-9.727-9.258-15.64-28.991-29.178-27.773-9.576.861-17.332 8.026-24.615 15.019-2.439.541-4.847 1.105-7.191 1.637-15.924 3.616-22.908-28.311-49.831-17.278-13.481 5.524-19.25 17.549-29.269 28.127-21.444 22.643-42.897-16.188-77.172 15.127-18.398 16.811-2.262 38.367-21.719 52.563-23.894 17.433-27.145 7.115-51.265 16.345-34.234 13.1-6.662 38.156-13.907 57.859-1.727 1.868-3.952 3.569-6.816 5.052-5.187 2.686-11.426 1.862-17.17 2.928-16.747 3.104-26.345 25.492-17.049 39.764.681 1.045 1.45 2.067 2.263 3.075.997 2.543 2.421 4.916 4.327 6.981 1.816 1.971 3.989 3.772 6.218 5.536 2.21 3.37 3.508 6.934 2.717 10.983-.922 4.717-4.617 8.325-8.125 11.609-10.674 9.989-32.674 15.364-32.021 29.97 1.067 23.894 39.724 39.005 26.981 59.245-5.054 8.028-15.144 19.589-16.535 28.973-5.194 35.035 27.659 18.4 37.903 35.274 7.509 12.368 3.979 31.987 16.803 38.689 11.578 6.052 28.016-3.943 39.52-2.588 1.422 1.131 3.039 2.043 4.926 2.656.729.237 1.469.398 2.212.526.553.522 1.084 1.096 1.575 1.771 5.853 8.042-.405 19.188.242 29.113 1.589 24.359 37.135 25.32 60.588 18.55-7.232 22.374 17.195 47.934 39.875 41.721 10.039-2.751 18.205-10.075 27.916-13.821 20.967-8.087 47.448 4.452 54.479 25.796 3.962-12.247 8.414-25.222 18.494-33.227 10.08-8.006 36.209 14.848 39.587 19.404 5.721 7.72 18.562 6.174 25.409-.566 6.846-6.741 3.772-20.173 11.39-26.027 23.6-18.133 62.909 28.023 62.688-20.754-.099-21.684 23.842 6.018 55.082-13.44 10.366-6.458 7.694-18.001 15.418-27.462 7.91-9.689 23.842-6.64 34.395-13.354 11.211-7.13 12.884-23.71 7.25-35.742-1.337-2.856-2.982-5.509-4.841-8.011-.915-6.865-1.841-13.65 1.476-19.484z" fill="#333d47"/><path d="m769.848 2265.66c-43.517 0-53.12 0-96.638 0-100.297 0-111.333-62.855-132.295-134.43-24.883-84.959-60.364-189.551-64.461-284.328-2.969-73.936 87.649-121.643 179.799-121.643h130.552c92.152 0 182.766 47.707 179.801 121.643-4.099 94.777-47.977 148.557-49.02 284.328-.57 74.057-47.441 134.43-147.738 134.43z" fill="#c3e7f4"/><path d="m985.098 1789.99c-3.328-81.438 11.478-111.209-59.164-146.994 0 0-53.428-8.785-89.244-17.452-25.333-6.13-63.095-33.091-65.864-59.007l-12.646-118.338h-61.197l-12.645 118.338c-2.77 25.917-36.049 44.106-60.416 53.358-23.384 8.879-94.694 23.101-94.694 23.101-76.161 45.838-89.424 99.324-121.576 190.182l-43.188 94.938 129.896-32.498z" fill="#734a37"/><path d="m944.013 1644.421-92.143-15.647c-4.019 0-73.601 38.905-124.496 38.265-82.449-1.038-132.587-38.265-136.605-38.265l-90.536 14.755c-15.1 82.658 3.497 124.406-12.576 183.6-13.827 50.92 24.91 100.906 77.676 100.906h315.951c57.084 0 98.014-53.85 84.054-109.199-14.571-57.782-6.921-95.571-21.325-174.415z" fill="#c3e7f4"/><path d="m753.088 2139.599c-.953 22.857-38.851 20.91-85.617 18.961-46.768-1.949-103.002 15.008-102.05-7.85.954-22.859 58.089-61.447 104.855-59.498 46.769 1.95 83.766 25.53 82.812 48.387z" fill="#734a37"/><path d="m1019.536 1721.652s265.166 391 134.469 428.1c-149.594 42.463-320.073-9.328-407.859 7.533-62.244 11.953-8.86-43.238-8.86-43.238l314.026-44.402s-97.31-162.314-119.015-256.732c-21.705-94.419 87.239-91.261 87.239-91.261z" fill="#734a37"/><path d="m694.849 2139.599c.953 22.857 38.852 20.91 85.617 18.961 46.768-1.949 103.002 15.008 102.049-7.85-.953-22.859-58.088-61.447-104.855-59.498-46.767 1.95-83.764 25.53-82.811 48.387z" fill="#734a37"/><path d="m428.402 1721.652s-265.166 391-134.468 428.1c149.593 42.463 320.073-9.328 407.859 7.533 62.243 11.953 8.86-43.238 8.86-43.238l-314.026-44.402s97.309-162.314 119.016-256.732c21.703-94.419-87.241-91.261-87.241-91.261z" fill="#734a37"/><path d="m910.064 1639.892s102.293-35.168 248.636 312.398l-138.276 82.711s-204.268-258.978-110.36-395.109z" fill="#c3e7f4"/><path d="m535.573 1639.892s-102.292-35.168-248.635 312.398l138.275 82.711s204.268-258.978 110.36-395.109z" fill="#c3e7f4"/><path d="m735.198 1698.632c-61.062 0-121.414-20.467-169.795-58.332-1.224-.956-1.44-2.726-.482-3.949.952-1.229 2.721-1.448 3.95-.481 56.6 44.297 129.93 64.299 201.187 54.838 49.939-6.618 96.872-27.485 132.177-44.921 1.379-.681 3.082-.125 3.77 1.277.687 1.394.116 3.082-1.275 3.769-35.693 17.626-83.177 38.724-133.936 45.457-11.838 1.567-23.731 2.342-35.596 2.342z" fill="#d9e0e6"/><path d="m713.76 1730.353c-15.344 0-30.254-1.021-44.828-3.072-60.365-8.48-112.928-35.326-148.008-75.597-1.022-1.173-.899-2.95.271-3.969 1.166-1.022 2.946-.898 3.971.272 34.192 39.248 85.524 65.429 144.545 73.72 49.671 6.986 103.535 1.896 164.657-15.562 48.522-13.85 88.278-31.704 121.543-54.585 1.27-.877 3.034-.559 3.913.725.879 1.28.556 3.03-.725 3.913-33.777 23.234-74.071 41.336-123.181 55.356-44.025 12.567-84.376 18.799-122.158 18.799z" fill="#d9e0e6"/><path d="m668.767 2087.404c-1.446 0-2.676-1.111-2.797-2.578-4.496-53.836 3.593-110.871 11.414-166.023 8.519-60.053 17.322-122.145 9.843-180.041-.197-1.545.89-2.957 2.43-3.154 1.554-.232 2.95.889 3.153 2.43 7.574 58.654-1.286 121.131-9.853 181.549-7.777 54.854-15.822 111.57-11.382 164.768.131 1.551-1.022 2.912-2.566 3.039-.084.004-.16.01-.242.01z" fill="#d9e0e6"/><path d="m710.006 2084.404c-1.281 0-2.435-.873-2.742-2.172-10.458-44.697-4.759-92.604.274-134.875l24.451-205.529c.187-1.549 1.698-2.65 3.122-2.463 1.544.184 2.649 1.582 2.462 3.123l-24.451 205.533c-5.215 43.85-10.612 89.195-.374 132.924.352 1.518-.588 3.029-2.099 3.387-.219.048-.434.072-.643.072z" fill="#d9e0e6"/><path d="m746.234 2084.802c-.006 0-.013 0-.016 0-1.556 0-2.809-1.822-2.797-3.377.691-117.07 10.045-242.01 25.664-342.318.237-1.537 1.693-2.725 3.216-2.484 1.533.242 2.583 1.609 2.346 3.146-15.58 100.039-24.906 224.922-25.599 341.723-.012 1.55-1.27 3.31-2.814 3.31z" fill="#d9e0e6"/><ellipse cx="633.796" cy="1403.217" fill="#734a37" rx="43.833" ry="32.722"/><ellipse cx="822.951" cy="1403.217" fill="#734a37" rx="43.833" ry="32.722"/><path d="m730.203 1528.717c63.869 0 105.15-52.256 105.15-116.125v-107.151c0-63.869-41.28-90.516-105.149-90.516 0 0-110.301-13.38-105.152 90.516v107.151c0 63.869 41.281 116.125 105.151 116.125z" fill="#734a37"/><path d="m643.479 1369.25c2.769-8.535 2.199-21.324 5.208-29.776 3.011-8.452 7.262-16.009 16.227-16.371 3.106-.126 6.286.595 9.289-.208 3.973-1.063 6.761-4.526 9.261-7.791 7.827-10.216 10.806-28.4 23.478-30.649 8.546-1.517 14.907 9.406 23.463 10.866 8.557 1.46 18.428-1.196 22.963-8.598 4.602-7.51 6.463-20.682 15.119-19.059 2.979.559 5.148 3.029 7.539 4.894 5.786 4.513 14.006 5.685 20.823 2.967 5.233.508 6.584 7.645 5.486 12.785-1.099 5.141-1.458 17.374 1.893 21.425 4.62 5.587 14.061 8.061 18.15 14.047 11.412 16.707-7.379 41.761 20.48 48.188 45.488 10.494 26.674-70.098 26.261-88.17-.239-10.43-6.485-19.641-12.495-28.169-3.359-4.766-6.981-9.752-12.323-12.089-4.106-1.795-8.77-1.803-13.047-3.141-7.531-2.354-13.118-8.509-18.953-13.819-20.708-18.842-47.725-28.879-74.021-38.49-7.486-2.735-15.363-5.516-23.246-4.34-6.256.933-11.845 4.267-17.667 6.738-23.209 9.848-51.695 6.54-71.856 21.681-19.009 14.274-24.25 40.087-28.119 63.543-2.667 16.166-3.847 32.648-8 48.497-16.84 64.263 42.84 79.708 54.087 45.039z" fill="#333d47"/><path d="m610.508 1429.666c-3.963.416-7.927.834-11.889 1.25-8.801.927-18.407-4.679-20.656-12.7-5.006-17.768-7.254-36.107-6.678-54.462.248-8.286 8.254-15.743 17.054-16.669 3.963-.417 7.925-.834 11.889-1.251 3.322-.351 5.711 1.893 5.45 5.012-2.059 24.572.971 49.283 8.927 72.801 1.009 2.986-.775 5.668-4.097 6.019z" fill="#e6e4e1"/><path d="m842.124 1429.666c3.963.416 7.926.834 11.888 1.25 8.801.927 18.408-4.679 20.657-12.7 5.005-17.768 7.253-36.107 6.676-54.462-.247-8.286-8.253-15.743-17.054-16.669-3.963-.417-7.925-.834-11.889-1.251-3.322-.351-5.71 1.893-5.449 5.012 2.058 24.572-.972 49.283-8.927 72.801-1.008 2.986.775 5.668 4.098 6.019z" fill="#e6e4e1"/><path d="m675.612 1476.625c.957 1.495 1.761 3.484 1.326 5.179-.968 3.766-4.028 7.079-6.778 7.045-6.093-.062-11.968-1.335-17.447-3.785-2.475-1.101-3.599-5.321-2.63-9.086.436-1.694 4.121-5.148 6.931-5.247 8.1-.289 15.844 1.587 18.598 5.894z" fill="#e6e4e1"/><path d="m670.788 1485.428c-39.377 1.132-72.581-38.635-74.02-88.649-.066-2.328 1.916-4.272 4.426-4.343 2.511-.073 4.602 1.754 4.669 4.082 1.304 45.365 30.32 81.473 64.682 80.485 2.512-.072 4.602 1.753 4.668 4.081.067 2.329-1.914 4.271-4.425 4.344z" fill="#e6e4e1"/><path d="m598.966 1365.871-8.875-.429c.079-1.616 9.216-160.197 138.328-160.197 1.209 0 2.427.014 3.655.041 83.165 1.895 127.559 52.537 131.952 150.516l-8.874.399c-4.206-93.777-44.533-140.236-123.281-142.029-124.122-2.751-132.829 150.15-132.905 151.699z" fill="#e6e4e1"/><path d="m659.659 2122.906h585.839v34.764h-585.839z" fill="#515c66"/><path d="m667.026 2130.275h585.839v34.764h-585.839z" fill="#5c6c7a"/><path d="m1268.469 2128.14h-519.314l51.574-327.601h519.315z" fill="#515c66"/><path d="m1268.469 2150.242h-519.314l58.942-349.703h519.314z" fill="#5c6c7a"/><path d="m0 2160.232h3797.891v75.065h-3797.891z" fill="#678594"/><path d="m0 2193.297h3797.891v231.069h-3797.891z" fill="#89bcc4"/></svg>